{"title":"Black Sails S01E03 x264 AAC E-Subs [GWC].mp4","uid":9592719,"size":217233575,"categoryP":"video","categoryS":"tv_shows","magnet":"?xt=urn:btih:ad92181f4bbb1a87b265765570cf5af33816a8c2&amp;dn=Black+Sails+S01E03+x264+AAC+E-Subs+%5BGWC%5D.mp4&amp;tr=udp%3A%2F%2Ftracker.openbittorrent.com%3A80&amp;tr=udp%3A%2F%2Fopen.demonii.com%3A1337&amp;tr=udp%3A%2F%2Ftracker.coppersurfer.tk%3A6969&amp;tr=udp%3A%2F%2Fexodus.desync.com%3A6969","seeders":1,"leechers":0,"uploader":"canc232","files":1,"time":1391944818,"description":"Black Sails S01E03 x264 AAC E-Subs [GWC] \n\nPlot :\nCaptain Flint and his pirates, twenty years prior to Robert Louis Stevenson's classic &quot;Treasure Island&quot;. \n\n\nSCREENS : &lt;a href=&quot;\nhttp://s20.postimg.org/essauambh/black_sails_s01e03_hdtv_15_32_27.jpg&quot; rel=&quot;nofollow&quot; target=&quot;_NEW&quot;&gt;\nhttp://s20.postimg.org/essauambh/black_sails_s01e03_hdtv_15_32_27.jpg&lt;/a&gt; &lt;a href=&quot;\nhttp://s20.postimg.org/ma1i9ibul/black_sails_s01e03_hdtv_15_34_15.jpg&quot; rel=&quot;nofollow&quot; target=&quot;_NEW&quot;&gt;\nhttp://s20.postimg.org/ma1i9ibul/black_sails_s01e03_hdtv_15_34_15.jpg&lt;/a&gt; &lt;a href=&quot;\nhttp://s20.postimg.org/rzhqtti0t/black_sails_s01e03_hdtv_15_32_54.jpg&quot; rel=&quot;nofollow&quot; target=&quot;_NEW&quot;&gt;\nhttp://s20.postimg.org/rzhqtti0t/black_sails_s01e03_hdtv_15_32_54.jpg&lt;/a&gt;\n\n\nMEDIA INFO :\nGeneral \nFormat : MPEG-4 \nFormat profile : Base Media \nFile size : 207 MiB \nDuration : 57mn 41s \nOverall bit rate : 502 Kbps \n\nVideo \nFormat : AVC \nFormat profile : &lt;a class=&quot;__cf_email__&quot; href=&quot;/cdn-cgi/l/email-protection&quot; data-cfemail=&quot;2860414f4068641b0618&quot;&gt;[email&amp;#160;protected]&lt;/a&gt;&lt;script cf-hash='f9e31' type=&quot;text/javascript&quot;&gt;\n/* &lt;![CDATA[ */!function(){try{var t=&quot;currentScript&quot;in document?document.currentScript:function(){for(var t=document.getElementsByTagName(&quot;script&quot;),e=t.length;e--;)if(t[e].getAttribute(&quot;cf-hash&quot;))return t[e]}();if(t&amp;&amp;t.previousSibling){var e,r,n,i,c=t.previousSibling,a=c.getAttribute(&quot;data-cfemail&quot;);if(a){for(e=&quot;&quot;,r=parseInt(a.substr(0,2),16),n=2;a.length-n;n+=2)i=parseInt(a.substr(n,2),16)^r,e+=String.fromCharCode(i);e=document.createTextNode(e),c.parentNode.replaceChild(e,c)}}}catch(u){}}();/* ]]&gt; */&lt;/script&gt; \nFormat settings, CABAC : Yes \nFormat settings, ReFrames : 4 frames \nDuration : 57mn 41s \nBit rate : 439 Kbps \nMaximum bit rate : 1 837 Kbps \nWidth : 720 pixels \nHeight : 404 pixels \nDisplay aspect ratio : 16:9 \nFrame rate : 23.976 fps \nStream size : 181 MiB (87%) \nTitle : Black Sails S01E03 x264 AAC E-Subs [GWC] \nWriting library : x264 core\n\nAudio \nFormat : AAC \nFormat profile : HE-AAC / LC \nDuration : 57mn 41s \nBit rate mode : Variable \nChannel(s) : 2 channels \nSampling rate : 48.0 KHz / 24.0 KHz \nStream size : 24.7 MiB (12%) \nLanguage : English \n\nText \nFormat : Timed Text \nDuration : 56mn 13s \nStream size : 26.4 KiB (0%) \nTitle : English Subtitle by honeybunny \nLanguage : English ","torrent":{"xt":"urn:btih:ad92181f4bbb1a87b265765570cf5af33816a8c2","amp;dn":"Black+Sails+S01E03+x264+AAC+E-Subs+%5BGWC%5D.mp4","amp;tr":["udp%3A%2F%2Ftracker.openbittorrent.com%3A80","udp%3A%2F%2Fopen.demonii.com%3A1337","udp%3A%2F%2Ftracker.coppersurfer.tk%3A6969","udp%3A%2F%2Fexodus.desync.com%3A6969"],"infoHash":"ad92181f4bbb1a87b265765570cf5af33816a8c2","infoHashBuffer":{"type":"Buffer","data":[173,146,24,31,75,187,26,135,178,101,118,85,112,207,90,243,56,22,168,194]},"announce":[],"urlList":[]}}